<mxfile host="app.diagrams.net" modified="2020-05-06T08:47:50.348Z" agent="5.0 (Windows NT 10.0; Win64; x64) AppleWebKit/537.36 (KHTML, like Gecko) Chrome/80.0.3987.163 Safari/537.36" etag="jgaCdME3MNke6u_J8Bmv" version="13.0.8" type="github">
  <diagram id="yvnWV6pOyZVBDLrMJ3C2" name="第 1 页">
    <mxGraphModel dx="1468" dy="807" grid="1" gridSize="10" guides="1" tooltips="1" connect="1" arrows="1" fold="1" page="1" pageScale="1" pageWidth="1920" pageHeight="1200" math="0" shadow="0">
      <root>
        <mxCell id="0" />
        <mxCell id="1" parent="0" />
        <mxCell id="a-y7HeUbZQsTOK5yy_fq-21" value="" style="rounded=1;whiteSpace=wrap;html=1;strokeColor=#d6b656;strokeWidth=1;fillColor=#fff2cc;" vertex="1" parent="1">
          <mxGeometry x="340" y="360" width="300" height="260" as="geometry" />
        </mxCell>
        <mxCell id="a-y7HeUbZQsTOK5yy_fq-9" value="&lt;font style=&quot;font-size: 20px&quot;&gt;Kafka Manager&lt;/font&gt;" style="shape=process;whiteSpace=wrap;html=1;backgroundOutline=1;fillColor=none;" vertex="1" parent="1">
          <mxGeometry x="390" y="680" width="200" height="60" as="geometry" />
        </mxCell>
        <mxCell id="a-y7HeUbZQsTOK5yy_fq-10" value="&lt;font style=&quot;font-size: 20px&quot;&gt;jmx_prometheus_javaagent&lt;/font&gt;" style="rounded=1;whiteSpace=wrap;html=1;fillColor=none;" vertex="1" parent="1">
          <mxGeometry x="345" y="260" width="290" height="60" as="geometry" />
        </mxCell>
        <mxCell id="a-y7HeUbZQsTOK5yy_fq-12" value="&lt;font style=&quot;font-size: 20px&quot;&gt;Prometheus&lt;/font&gt;" style="rounded=1;whiteSpace=wrap;html=1;fillColor=none;" vertex="1" parent="1">
          <mxGeometry x="420" y="160" width="140" height="60" as="geometry" />
        </mxCell>
        <mxCell id="a-y7HeUbZQsTOK5yy_fq-15" value="&lt;span style=&quot;font-size: 20px&quot;&gt;Grafana&lt;/span&gt;" style="shape=process;whiteSpace=wrap;html=1;backgroundOutline=1;fillColor=none;" vertex="1" parent="1">
          <mxGeometry x="425" y="70" width="130" height="50" as="geometry" />
        </mxCell>
        <mxCell id="a-y7HeUbZQsTOK5yy_fq-16" value="" style="endArrow=classic;html=1;exitX=0.5;exitY=0;exitDx=0;exitDy=0;entryX=0.5;entryY=1;entryDx=0;entryDy=0;" edge="1" parent="1" source="a-y7HeUbZQsTOK5yy_fq-21" target="a-y7HeUbZQsTOK5yy_fq-10">
          <mxGeometry width="50" height="50" relative="1" as="geometry">
            <mxPoint x="490" y="360" as="sourcePoint" />
            <mxPoint x="770" y="360" as="targetPoint" />
          </mxGeometry>
        </mxCell>
        <mxCell id="a-y7HeUbZQsTOK5yy_fq-17" value="" style="endArrow=classic;html=1;exitX=0.5;exitY=0;exitDx=0;exitDy=0;" edge="1" parent="1" source="a-y7HeUbZQsTOK5yy_fq-10" target="a-y7HeUbZQsTOK5yy_fq-12">
          <mxGeometry width="50" height="50" relative="1" as="geometry">
            <mxPoint x="320" y="230" as="sourcePoint" />
            <mxPoint x="370" y="180" as="targetPoint" />
          </mxGeometry>
        </mxCell>
        <mxCell id="a-y7HeUbZQsTOK5yy_fq-18" value="" style="endArrow=classic;html=1;exitX=0.5;exitY=0;exitDx=0;exitDy=0;entryX=0.5;entryY=1;entryDx=0;entryDy=0;" edge="1" parent="1" source="a-y7HeUbZQsTOK5yy_fq-12" target="a-y7HeUbZQsTOK5yy_fq-15">
          <mxGeometry width="50" height="50" relative="1" as="geometry">
            <mxPoint x="320" y="180" as="sourcePoint" />
            <mxPoint x="370" y="130" as="targetPoint" />
          </mxGeometry>
        </mxCell>
        <mxCell id="a-y7HeUbZQsTOK5yy_fq-20" value="" style="rounded=0;whiteSpace=wrap;html=1;fillColor=none;dashed=1;strokeColor=#FF9999;strokeWidth=2;" vertex="1" parent="1">
          <mxGeometry x="330" y="50" width="320" height="280" as="geometry" />
        </mxCell>
        <mxCell id="a-y7HeUbZQsTOK5yy_fq-1" value="&lt;font style=&quot;font-size: 20px&quot;&gt;Kafka Broker&lt;/font&gt;" style="ellipse;shape=cloud;whiteSpace=wrap;html=1;" vertex="1" parent="1">
          <mxGeometry x="380" y="360" width="200" height="90" as="geometry" />
        </mxCell>
        <mxCell id="a-y7HeUbZQsTOK5yy_fq-2" value="&lt;font style=&quot;font-size: 20px&quot;&gt;Kafka Broker&lt;/font&gt;" style="ellipse;shape=cloud;whiteSpace=wrap;html=1;" vertex="1" parent="1">
          <mxGeometry x="350" y="420" width="200" height="90" as="geometry" />
        </mxCell>
        <mxCell id="a-y7HeUbZQsTOK5yy_fq-3" value="&lt;font style=&quot;font-size: 20px&quot;&gt;Kafka Broker&lt;/font&gt;" style="ellipse;shape=cloud;whiteSpace=wrap;html=1;" vertex="1" parent="1">
          <mxGeometry x="420" y="470" width="200" height="90" as="geometry" />
        </mxCell>
        <mxCell id="a-y7HeUbZQsTOK5yy_fq-4" value="&lt;font style=&quot;font-size: 20px&quot;&gt;..........&lt;/font&gt;" style="ellipse;shape=cloud;whiteSpace=wrap;html=1;" vertex="1" parent="1">
          <mxGeometry x="380" y="520" width="200" height="90" as="geometry" />
        </mxCell>
        <mxCell id="a-y7HeUbZQsTOK5yy_fq-24" value="" style="endArrow=classic;html=1;exitX=0.5;exitY=1;exitDx=0;exitDy=0;" edge="1" parent="1" source="a-y7HeUbZQsTOK5yy_fq-21" target="a-y7HeUbZQsTOK5yy_fq-9">
          <mxGeometry width="50" height="50" relative="1" as="geometry">
            <mxPoint x="680" y="720" as="sourcePoint" />
            <mxPoint x="730" y="670" as="targetPoint" />
          </mxGeometry>
        </mxCell>
        <mxCell id="a-y7HeUbZQsTOK5yy_fq-25" value="&lt;font style=&quot;font-size: 20px&quot;&gt;Flume Agg&lt;/font&gt;" style="rounded=1;whiteSpace=wrap;html=1;strokeColor=#d79b00;strokeWidth=1;fillColor=#ffe6cc;" vertex="1" parent="1">
          <mxGeometry x="140" y="460" width="120" height="60" as="geometry" />
        </mxCell>
        <mxCell id="a-y7HeUbZQsTOK5yy_fq-26" value="" style="endArrow=classic;html=1;exitX=1;exitY=0.5;exitDx=0;exitDy=0;" edge="1" parent="1" source="a-y7HeUbZQsTOK5yy_fq-25" target="a-y7HeUbZQsTOK5yy_fq-21">
          <mxGeometry width="50" height="50" relative="1" as="geometry">
            <mxPoint x="260" y="480" as="sourcePoint" />
            <mxPoint x="310" y="430" as="targetPoint" />
          </mxGeometry>
        </mxCell>
        <mxCell id="a-y7HeUbZQsTOK5yy_fq-27" value="" style="shape=curlyBracket;whiteSpace=wrap;html=1;rounded=1;strokeColor=#000000;strokeWidth=1;fillColor=none;" vertex="1" parent="1">
          <mxGeometry x="660" y="389" width="40" height="201" as="geometry" />
        </mxCell>
        <mxCell id="a-y7HeUbZQsTOK5yy_fq-28" value="&lt;font style=&quot;font-size: 20px&quot;&gt;Kafka Streams&lt;/font&gt;" style="rounded=1;whiteSpace=wrap;html=1;strokeColor=#000000;strokeWidth=1;fillColor=none;" vertex="1" parent="1">
          <mxGeometry x="730" y="366.5" width="160" height="40" as="geometry" />
        </mxCell>
        <mxCell id="a-y7HeUbZQsTOK5yy_fq-29" value="&lt;font style=&quot;font-size: 20px&quot;&gt;HdfsBridge&lt;/font&gt;" style="rounded=1;whiteSpace=wrap;html=1;strokeColor=#000000;strokeWidth=1;fillColor=none;" vertex="1" parent="1">
          <mxGeometry x="730" y="416.5" width="160" height="40" as="geometry" />
        </mxCell>
        <mxCell id="a-y7HeUbZQsTOK5yy_fq-32" value="&lt;font style=&quot;font-size: 20px&quot;&gt;EsBridge&lt;/font&gt;" style="rounded=1;whiteSpace=wrap;html=1;strokeColor=#000000;strokeWidth=1;fillColor=none;" vertex="1" parent="1">
          <mxGeometry x="730" y="466.5" width="160" height="35" as="geometry" />
        </mxCell>
        <mxCell id="a-y7HeUbZQsTOK5yy_fq-33" value="&lt;font style=&quot;font-size: 20px&quot;&gt;HBaseBridge&lt;/font&gt;" style="rounded=1;whiteSpace=wrap;html=1;strokeColor=#000000;strokeWidth=1;fillColor=none;" vertex="1" parent="1">
          <mxGeometry x="730" y="514.5" width="160" height="35" as="geometry" />
        </mxCell>
        <mxCell id="a-y7HeUbZQsTOK5yy_fq-34" value="&lt;font style=&quot;font-size: 20px&quot;&gt;KuduBridge&lt;/font&gt;" style="rounded=1;whiteSpace=wrap;html=1;strokeColor=#000000;strokeWidth=1;fillColor=none;" vertex="1" parent="1">
          <mxGeometry x="730" y="561.5" width="160" height="35" as="geometry" />
        </mxCell>
        <mxCell id="a-y7HeUbZQsTOK5yy_fq-35" value="&lt;font style=&quot;font-size: 20px&quot;&gt;.........&lt;/font&gt;" style="rounded=1;whiteSpace=wrap;html=1;strokeColor=#000000;strokeWidth=1;fillColor=none;" vertex="1" parent="1">
          <mxGeometry x="730" y="608.5" width="160" height="35" as="geometry" />
        </mxCell>
        <mxCell id="a-y7HeUbZQsTOK5yy_fq-37" value="" style="edgeStyle=elbowEdgeStyle;elbow=vertical;endArrow=classic;html=1;entryX=0.5;entryY=0;entryDx=0;entryDy=0;" edge="1" parent="1" source="a-y7HeUbZQsTOK5yy_fq-28" target="a-y7HeUbZQsTOK5yy_fq-21">
          <mxGeometry width="50" height="50" relative="1" as="geometry">
            <mxPoint x="790" y="390" as="sourcePoint" />
            <mxPoint x="840" y="340" as="targetPoint" />
            <Array as="points">
              <mxPoint x="660" y="340" />
            </Array>
          </mxGeometry>
        </mxCell>
        <mxCell id="a-y7HeUbZQsTOK5yy_fq-38" value="&lt;font style=&quot;font-size: 19px&quot;&gt;HDFS&lt;/font&gt;" style="shape=cylinder;whiteSpace=wrap;html=1;boundedLbl=1;backgroundOutline=1;strokeColor=#000000;strokeWidth=1;fillColor=none;" vertex="1" parent="1">
          <mxGeometry x="950" y="418" width="80" height="37" as="geometry" />
        </mxCell>
        <mxCell id="a-y7HeUbZQsTOK5yy_fq-39" value="&lt;font style=&quot;font-size: 19px&quot;&gt;ES&lt;/font&gt;" style="shape=cylinder;whiteSpace=wrap;html=1;boundedLbl=1;backgroundOutline=1;strokeColor=#000000;strokeWidth=1;fillColor=none;" vertex="1" parent="1">
          <mxGeometry x="950" y="465.5" width="80" height="37" as="geometry" />
        </mxCell>
        <mxCell id="a-y7HeUbZQsTOK5yy_fq-40" value="&lt;font style=&quot;font-size: 19px&quot;&gt;HBase&lt;/font&gt;" style="shape=cylinder;whiteSpace=wrap;html=1;boundedLbl=1;backgroundOutline=1;strokeColor=#000000;strokeWidth=1;fillColor=none;" vertex="1" parent="1">
          <mxGeometry x="950" y="513.5" width="80" height="37" as="geometry" />
        </mxCell>
        <mxCell id="a-y7HeUbZQsTOK5yy_fq-41" value="&lt;font style=&quot;font-size: 19px&quot;&gt;Kudu&lt;/font&gt;" style="shape=cylinder;whiteSpace=wrap;html=1;boundedLbl=1;backgroundOutline=1;strokeColor=#000000;strokeWidth=1;fillColor=none;" vertex="1" parent="1">
          <mxGeometry x="950" y="563" width="80" height="37" as="geometry" />
        </mxCell>
        <mxCell id="a-y7HeUbZQsTOK5yy_fq-44" value="" style="endArrow=classic;html=1;exitX=1;exitY=0.5;exitDx=0;exitDy=0;entryX=0;entryY=0.5;entryDx=0;entryDy=0;" edge="1" parent="1" source="a-y7HeUbZQsTOK5yy_fq-29" target="a-y7HeUbZQsTOK5yy_fq-38">
          <mxGeometry width="50" height="50" relative="1" as="geometry">
            <mxPoint x="970" y="430" as="sourcePoint" />
            <mxPoint x="1020" y="380" as="targetPoint" />
          </mxGeometry>
        </mxCell>
        <mxCell id="a-y7HeUbZQsTOK5yy_fq-45" value="" style="endArrow=classic;html=1;exitX=1;exitY=0.5;exitDx=0;exitDy=0;" edge="1" parent="1" source="a-y7HeUbZQsTOK5yy_fq-32" target="a-y7HeUbZQsTOK5yy_fq-39">
          <mxGeometry width="50" height="50" relative="1" as="geometry">
            <mxPoint x="940" y="550" as="sourcePoint" />
            <mxPoint x="990" y="500" as="targetPoint" />
          </mxGeometry>
        </mxCell>
        <mxCell id="a-y7HeUbZQsTOK5yy_fq-46" value="" style="endArrow=classic;html=1;exitX=1;exitY=0.5;exitDx=0;exitDy=0;entryX=0;entryY=0.5;entryDx=0;entryDy=0;" edge="1" parent="1" source="a-y7HeUbZQsTOK5yy_fq-33" target="a-y7HeUbZQsTOK5yy_fq-40">
          <mxGeometry width="50" height="50" relative="1" as="geometry">
            <mxPoint x="930" y="610" as="sourcePoint" />
            <mxPoint x="980" y="560" as="targetPoint" />
          </mxGeometry>
        </mxCell>
        <mxCell id="a-y7HeUbZQsTOK5yy_fq-47" value="" style="endArrow=classic;html=1;exitX=1;exitY=0.5;exitDx=0;exitDy=0;entryX=0;entryY=0.432;entryDx=0;entryDy=0;entryPerimeter=0;" edge="1" parent="1" source="a-y7HeUbZQsTOK5yy_fq-34" target="a-y7HeUbZQsTOK5yy_fq-41">
          <mxGeometry width="50" height="50" relative="1" as="geometry">
            <mxPoint x="930" y="650" as="sourcePoint" />
            <mxPoint x="980" y="600" as="targetPoint" />
          </mxGeometry>
        </mxCell>
        <mxCell id="a-y7HeUbZQsTOK5yy_fq-48" value="" style="shape=curlyBracket;whiteSpace=wrap;html=1;rounded=1;strokeColor=#000000;strokeWidth=1;fillColor=none;rotation=-180;" vertex="1" parent="1">
          <mxGeometry x="1050" y="426.5" width="20" height="170" as="geometry" />
        </mxCell>
        <mxCell id="a-y7HeUbZQsTOK5yy_fq-49" value="&lt;font style=&quot;font-size: 20px&quot;&gt;Presto&lt;/font&gt;" style="rounded=1;whiteSpace=wrap;html=1;strokeColor=#000000;strokeWidth=1;fillColor=none;" vertex="1" parent="1">
          <mxGeometry x="1090" y="482.5" width="90" height="58" as="geometry" />
        </mxCell>
      </root>
    </mxGraphModel>
  </diagram>
</mxfile>
